%TF.GenerationSoftware,KiCad,Pcbnew,9.0.2-9.0.2-0~ubuntu24.04.1*%
%TF.CreationDate,2025-05-30T10:58:53-03:00*%
%TF.ProjectId,MSG25,4d534732-352e-46b6-9963-61645f706362,rev?*%
%TF.SameCoordinates,Original*%
%TF.FileFunction,Paste,Top*%
%TF.FilePolarity,Positive*%
%FSLAX46Y46*%
G04 Gerber Fmt 4.6, Leading zero omitted, Abs format (unit mm)*
G04 Created by KiCad (PCBNEW 9.0.2-9.0.2-0~ubuntu24.04.1) date 2025-05-30 10:58:53*
%MOMM*%
%LPD*%
G01*
G04 APERTURE LIST*
G04 Aperture macros list*
%AMRoundRect*
0 Rectangle with rounded corners*
0 $1 Rounding radius*
0 $2 $3 $4 $5 $6 $7 $8 $9 X,Y pos of 4 corners*
0 Add a 4 corners polygon primitive as box body*
4,1,4,$2,$3,$4,$5,$6,$7,$8,$9,$2,$3,0*
0 Add four circle primitives for the rounded corners*
1,1,$1+$1,$2,$3*
1,1,$1+$1,$4,$5*
1,1,$1+$1,$6,$7*
1,1,$1+$1,$8,$9*
0 Add four rect primitives between the rounded corners*
20,1,$1+$1,$2,$3,$4,$5,0*
20,1,$1+$1,$4,$5,$6,$7,0*
20,1,$1+$1,$6,$7,$8,$9,0*
20,1,$1+$1,$8,$9,$2,$3,0*%
G04 Aperture macros list end*
%ADD10RoundRect,0.250000X0.600000X-0.400000X0.600000X0.400000X-0.600000X0.400000X-0.600000X-0.400000X0*%
%ADD11RoundRect,0.250000X0.337500X0.475000X-0.337500X0.475000X-0.337500X-0.475000X0.337500X-0.475000X0*%
%ADD12RoundRect,0.250000X-0.337500X-0.475000X0.337500X-0.475000X0.337500X0.475000X-0.337500X0.475000X0*%
%ADD13RoundRect,0.155000X-0.212500X-0.155000X0.212500X-0.155000X0.212500X0.155000X-0.212500X0.155000X0*%
%ADD14RoundRect,0.250000X-0.412500X-0.650000X0.412500X-0.650000X0.412500X0.650000X-0.412500X0.650000X0*%
%ADD15RoundRect,0.250000X0.650000X-0.412500X0.650000X0.412500X-0.650000X0.412500X-0.650000X-0.412500X0*%
%ADD16RoundRect,0.237500X-0.300000X-0.237500X0.300000X-0.237500X0.300000X0.237500X-0.300000X0.237500X0*%
%ADD17RoundRect,0.155000X-0.155000X0.212500X-0.155000X-0.212500X0.155000X-0.212500X0.155000X0.212500X0*%
%ADD18RoundRect,0.250000X0.450000X-0.350000X0.450000X0.350000X-0.450000X0.350000X-0.450000X-0.350000X0*%
%ADD19RoundRect,0.237500X0.237500X-0.300000X0.237500X0.300000X-0.237500X0.300000X-0.237500X-0.300000X0*%
%ADD20RoundRect,0.237500X0.300000X0.237500X-0.300000X0.237500X-0.300000X-0.237500X0.300000X-0.237500X0*%
%ADD21RoundRect,0.237500X-0.237500X0.300000X-0.237500X-0.300000X0.237500X-0.300000X0.237500X0.300000X0*%
%ADD22RoundRect,0.375000X-0.375000X0.625000X-0.375000X-0.625000X0.375000X-0.625000X0.375000X0.625000X0*%
%ADD23RoundRect,0.500000X-1.400000X0.500000X-1.400000X-0.500000X1.400000X-0.500000X1.400000X0.500000X0*%
%ADD24RoundRect,0.250000X0.400000X0.600000X-0.400000X0.600000X-0.400000X-0.600000X0.400000X-0.600000X0*%
%ADD25RoundRect,0.250000X-0.600000X0.400000X-0.600000X-0.400000X0.600000X-0.400000X0.600000X0.400000X0*%
%ADD26RoundRect,0.250000X-0.475000X0.337500X-0.475000X-0.337500X0.475000X-0.337500X0.475000X0.337500X0*%
%ADD27RoundRect,0.135000X-0.185000X0.135000X-0.185000X-0.135000X0.185000X-0.135000X0.185000X0.135000X0*%
%ADD28RoundRect,0.075000X-0.700000X-0.075000X0.700000X-0.075000X0.700000X0.075000X-0.700000X0.075000X0*%
%ADD29RoundRect,0.075000X-0.075000X-0.700000X0.075000X-0.700000X0.075000X0.700000X-0.075000X0.700000X0*%
%ADD30RoundRect,0.250000X-0.400000X-1.450000X0.400000X-1.450000X0.400000X1.450000X-0.400000X1.450000X0*%
G04 APERTURE END LIST*
D10*
%TO.C,D3*%
X125610000Y-112175000D03*
X125610000Y-108675000D03*
%TD*%
D11*
%TO.C,C212*%
X139647500Y-108275000D03*
X137572500Y-108275000D03*
%TD*%
D12*
%TO.C,C207*%
X137572500Y-106275000D03*
X139647500Y-106275000D03*
%TD*%
D13*
%TO.C,C209*%
X141137500Y-106175000D03*
X142272500Y-106175000D03*
%TD*%
D14*
%TO.C,C122*%
X138497500Y-75575000D03*
X141622500Y-75575000D03*
%TD*%
D15*
%TO.C,C127*%
X139560000Y-87287500D03*
X139560000Y-84162500D03*
%TD*%
D16*
%TO.C,C121*%
X139735000Y-77875000D03*
X141460000Y-77875000D03*
%TD*%
D17*
%TO.C,C211*%
X149160000Y-111507500D03*
X149160000Y-112642500D03*
%TD*%
D16*
%TO.C,C124*%
X139847500Y-73425000D03*
X141572500Y-73425000D03*
%TD*%
D11*
%TO.C,C23*%
X153547500Y-137525000D03*
X151472500Y-137525000D03*
%TD*%
D18*
%TO.C,R202*%
X145910000Y-107975000D03*
X145910000Y-105975000D03*
%TD*%
D11*
%TO.C,C22*%
X127617500Y-139275000D03*
X125542500Y-139275000D03*
%TD*%
D19*
%TO.C,C119*%
X140310000Y-68687500D03*
X140310000Y-66962500D03*
%TD*%
D12*
%TO.C,C20*%
X145582500Y-96645000D03*
X147657500Y-96645000D03*
%TD*%
D11*
%TO.C,C21*%
X131997500Y-100625000D03*
X129922500Y-100625000D03*
%TD*%
D20*
%TO.C,C131*%
X152452500Y-58665000D03*
X150727500Y-58665000D03*
%TD*%
D13*
%TO.C,C210*%
X141137500Y-108145000D03*
X142272500Y-108145000D03*
%TD*%
D21*
%TO.C,C132*%
X160880000Y-53592500D03*
X160880000Y-55317500D03*
%TD*%
D22*
%TO.C,U106*%
X133560000Y-85175000D03*
X131260000Y-85175000D03*
D23*
X131260000Y-91475000D03*
D22*
X128960000Y-85175000D03*
%TD*%
D24*
%TO.C,D8*%
X131110000Y-137075000D03*
X127610000Y-137075000D03*
%TD*%
D10*
%TO.C,D4*%
X129960000Y-108125000D03*
X129960000Y-104625000D03*
%TD*%
D19*
%TO.C,C126*%
X137610000Y-85887500D03*
X137610000Y-84162500D03*
%TD*%
D12*
%TO.C,C25*%
X150382500Y-130625000D03*
X152457500Y-130625000D03*
%TD*%
D24*
%TO.C,D5*%
X130810000Y-124225000D03*
X127310000Y-124225000D03*
%TD*%
D15*
%TO.C,C117*%
X136860000Y-70087500D03*
X136860000Y-66962500D03*
%TD*%
D10*
%TO.C,D108*%
X141910000Y-53625000D03*
X141910000Y-50125000D03*
%TD*%
D25*
%TO.C,D7*%
X141810000Y-142375000D03*
X141810000Y-145875000D03*
%TD*%
D26*
%TO.C,C205*%
X132510000Y-110537500D03*
X132510000Y-112612500D03*
%TD*%
D18*
%TO.C,R203*%
X134460000Y-112525000D03*
X134460000Y-110525000D03*
%TD*%
D27*
%TO.C,R201*%
X144410000Y-107315000D03*
X144410000Y-108335000D03*
%TD*%
D28*
%TO.C,U202*%
X135435000Y-115100000D03*
X135435000Y-115600000D03*
X135435000Y-116100000D03*
X135435000Y-116600000D03*
X135435000Y-117100000D03*
X135435000Y-117600000D03*
X135435000Y-118100000D03*
X135435000Y-118600000D03*
X135435000Y-119100000D03*
X135435000Y-119600000D03*
X135435000Y-120100000D03*
X135435000Y-120600000D03*
X135435000Y-121100000D03*
X135435000Y-121600000D03*
X135435000Y-122100000D03*
X135435000Y-122600000D03*
D29*
X137360000Y-124525000D03*
X137860000Y-124525000D03*
X138360000Y-124525000D03*
X138860000Y-124525000D03*
X139360000Y-124525000D03*
X139860000Y-124525000D03*
X140360000Y-124525000D03*
X140860000Y-124525000D03*
X141360000Y-124525000D03*
X141860000Y-124525000D03*
X142360000Y-124525000D03*
X142860000Y-124525000D03*
X143360000Y-124525000D03*
X143860000Y-124525000D03*
X144360000Y-124525000D03*
X144860000Y-124525000D03*
D28*
X146785000Y-122600000D03*
X146785000Y-122100000D03*
X146785000Y-121600000D03*
X146785000Y-121100000D03*
X146785000Y-120600000D03*
X146785000Y-120100000D03*
X146785000Y-119600000D03*
X146785000Y-119100000D03*
X146785000Y-118600000D03*
X146785000Y-118100000D03*
X146785000Y-117600000D03*
X146785000Y-117100000D03*
X146785000Y-116600000D03*
X146785000Y-116100000D03*
X146785000Y-115600000D03*
X146785000Y-115100000D03*
D29*
X144860000Y-113175000D03*
X144360000Y-113175000D03*
X143860000Y-113175000D03*
X143360000Y-113175000D03*
X142860000Y-113175000D03*
X142360000Y-113175000D03*
X141860000Y-113175000D03*
X141360000Y-113175000D03*
X140860000Y-113175000D03*
X140360000Y-113175000D03*
X139860000Y-113175000D03*
X139360000Y-113175000D03*
X138860000Y-113175000D03*
X138360000Y-113175000D03*
X137860000Y-113175000D03*
X137360000Y-113175000D03*
%TD*%
D15*
%TO.C,C130*%
X138460000Y-94737500D03*
X138460000Y-91612500D03*
%TD*%
D12*
%TO.C,C24*%
X123022500Y-121625000D03*
X125097500Y-121625000D03*
%TD*%
%TO.C,C206*%
X137572500Y-104275000D03*
X139647500Y-104275000D03*
%TD*%
D11*
%TO.C,C213*%
X151597500Y-114175000D03*
X149522500Y-114175000D03*
%TD*%
D19*
%TO.C,C128*%
X141760000Y-86050000D03*
X141760000Y-84325000D03*
%TD*%
D24*
%TO.C,D6*%
X135360000Y-129625000D03*
X131860000Y-129625000D03*
%TD*%
D13*
%TO.C,C208*%
X141137500Y-104205000D03*
X142272500Y-104205000D03*
%TD*%
D25*
%TO.C,D9*%
X150910000Y-142475000D03*
X150910000Y-145975000D03*
%TD*%
D30*
%TO.C,F101*%
X134635000Y-50075000D03*
X139085000Y-50075000D03*
%TD*%
D19*
%TO.C,C129*%
X136360000Y-93187500D03*
X136360000Y-91462500D03*
%TD*%
M02*
