%TF.GenerationSoftware,KiCad,Pcbnew,9.0.2-9.0.2-0~ubuntu24.04.1*%
%TF.CreationDate,2025-05-30T10:58:56-03:00*%
%TF.ProjectId,MSG25,4d534732-352e-46b6-9963-61645f706362,rev?*%
%TF.SameCoordinates,Original*%
%TF.FileFunction,Soldermask,Bot*%
%TF.FilePolarity,Negative*%
%FSLAX46Y46*%
G04 Gerber Fmt 4.6, Leading zero omitted, Abs format (unit mm)*
G04 Created by KiCad (PCBNEW 9.0.2-9.0.2-0~ubuntu24.04.1) date 2025-05-30 10:58:56*
%MOMM*%
%LPD*%
G01*
G04 APERTURE LIST*
G04 Aperture macros list*
%AMRoundRect*
0 Rectangle with rounded corners*
0 $1 Rounding radius*
0 $2 $3 $4 $5 $6 $7 $8 $9 X,Y pos of 4 corners*
0 Add a 4 corners polygon primitive as box body*
4,1,4,$2,$3,$4,$5,$6,$7,$8,$9,$2,$3,0*
0 Add four circle primitives for the rounded corners*
1,1,$1+$1,$2,$3*
1,1,$1+$1,$4,$5*
1,1,$1+$1,$6,$7*
1,1,$1+$1,$8,$9*
0 Add four rect primitives between the rounded corners*
20,1,$1+$1,$2,$3,$4,$5,0*
20,1,$1+$1,$4,$5,$6,$7,0*
20,1,$1+$1,$6,$7,$8,$9,0*
20,1,$1+$1,$8,$9,$2,$3,0*%
G04 Aperture macros list end*
%ADD10C,3.650000*%
%ADD11R,1.500000X1.500000*%
%ADD12C,1.500000*%
%ADD13C,2.500000*%
%ADD14R,1.700000X1.700000*%
%ADD15C,1.700000*%
%ADD16C,3.200000*%
%ADD17R,3.000000X3.000000*%
%ADD18C,3.000000*%
%ADD19C,3.500000*%
%ADD20R,2.000000X1.905000*%
%ADD21O,2.000000X1.905000*%
%ADD22RoundRect,0.250000X0.350000X0.450000X-0.350000X0.450000X-0.350000X-0.450000X0.350000X-0.450000X0*%
%ADD23RoundRect,0.250000X-0.337500X-0.475000X0.337500X-0.475000X0.337500X0.475000X-0.337500X0.475000X0*%
%ADD24RoundRect,0.250000X-0.475000X0.337500X-0.475000X-0.337500X0.475000X-0.337500X0.475000X0.337500X0*%
%ADD25RoundRect,0.150000X0.825000X0.150000X-0.825000X0.150000X-0.825000X-0.150000X0.825000X-0.150000X0*%
%ADD26RoundRect,0.250000X-0.600000X0.400000X-0.600000X-0.400000X0.600000X-0.400000X0.600000X0.400000X0*%
%ADD27RoundRect,0.237500X0.237500X-0.300000X0.237500X0.300000X-0.237500X0.300000X-0.237500X-0.300000X0*%
%ADD28RoundRect,0.237500X0.250000X0.237500X-0.250000X0.237500X-0.250000X-0.237500X0.250000X-0.237500X0*%
%ADD29RoundRect,0.250000X-0.350000X-0.450000X0.350000X-0.450000X0.350000X0.450000X-0.350000X0.450000X0*%
%ADD30RoundRect,0.250000X-0.450000X0.350000X-0.450000X-0.350000X0.450000X-0.350000X0.450000X0.350000X0*%
%ADD31RoundRect,0.250000X0.450000X-0.350000X0.450000X0.350000X-0.450000X0.350000X-0.450000X-0.350000X0*%
%ADD32RoundRect,0.150000X0.150000X-0.587500X0.150000X0.587500X-0.150000X0.587500X-0.150000X-0.587500X0*%
%ADD33RoundRect,0.150000X-0.825000X-0.150000X0.825000X-0.150000X0.825000X0.150000X-0.825000X0.150000X0*%
%ADD34RoundRect,0.237500X-0.250000X-0.237500X0.250000X-0.237500X0.250000X0.237500X-0.250000X0.237500X0*%
%ADD35RoundRect,0.237500X-0.237500X0.250000X-0.237500X-0.250000X0.237500X-0.250000X0.237500X0.250000X0*%
G04 APERTURE END LIST*
D10*
%TO.C,J106*%
X160860000Y-37325000D03*
X149430000Y-37325000D03*
D11*
X159590000Y-43675000D03*
D12*
X158320000Y-46215000D03*
X157050000Y-43675000D03*
X155780000Y-46215000D03*
X154510000Y-43675000D03*
X153240000Y-46215000D03*
X151970000Y-43675000D03*
X150700000Y-46215000D03*
D13*
X162895000Y-40375000D03*
X147395000Y-40375000D03*
%TD*%
D14*
%TO.C,J102*%
X164460000Y-113395000D03*
D15*
X164460000Y-115935000D03*
X164460000Y-118475000D03*
X164460000Y-121015000D03*
X164460000Y-123555000D03*
%TD*%
D16*
%TO.C,H101*%
X115700000Y-92555000D03*
%TD*%
D17*
%TO.C,-Temp1+1*%
X129740000Y-157555000D03*
D18*
X124660000Y-157555000D03*
%TD*%
D19*
%TO.C,U103*%
X160990000Y-69525000D03*
D20*
X144330000Y-66985000D03*
D21*
X144330000Y-69525000D03*
X144330000Y-72065000D03*
%TD*%
D19*
%TO.C,U502*%
X160990000Y-81725000D03*
D20*
X144330000Y-79185000D03*
D21*
X144330000Y-81725000D03*
X144330000Y-84265000D03*
%TD*%
D17*
%TO.C,Cell3*%
X115700000Y-130555000D03*
D18*
X115700000Y-125475000D03*
%TD*%
D17*
%TO.C,-Temp3+1*%
X153740000Y-157555000D03*
D18*
X148660000Y-157555000D03*
%TD*%
D14*
%TO.C,J9*%
X122100000Y-63205000D03*
D15*
X122100000Y-65745000D03*
X122100000Y-68285000D03*
X122100000Y-70825000D03*
%TD*%
D17*
%TO.C,+Banco1-1*%
X115700000Y-142555000D03*
D18*
X115700000Y-137475000D03*
%TD*%
D17*
%TO.C,Cell2*%
X115700000Y-118555000D03*
D18*
X115700000Y-113475000D03*
%TD*%
D14*
%TO.C,J101*%
X122100000Y-76205000D03*
D15*
X122100000Y-78745000D03*
X122100000Y-81285000D03*
X122100000Y-83825000D03*
%TD*%
D16*
%TO.C,H103*%
X115700000Y-157555000D03*
%TD*%
D14*
%TO.C,J8*%
X122100000Y-50205000D03*
D15*
X122100000Y-52745000D03*
X122100000Y-55285000D03*
X122100000Y-57825000D03*
%TD*%
D16*
%TO.C,H104*%
X162700000Y-157555000D03*
%TD*%
D10*
%TO.C,J105*%
X139860000Y-37325000D03*
X128430000Y-37325000D03*
D11*
X138590000Y-43675000D03*
D12*
X137320000Y-46215000D03*
X136050000Y-43675000D03*
X134780000Y-46215000D03*
X133510000Y-43675000D03*
X132240000Y-46215000D03*
X130970000Y-43675000D03*
X129700000Y-46215000D03*
D13*
X141895000Y-40375000D03*
X126395000Y-40375000D03*
%TD*%
D17*
%TO.C,Cell1*%
X115700000Y-106555000D03*
D18*
X115700000Y-101475000D03*
%TD*%
D17*
%TO.C,-Temp2+1*%
X141740000Y-157555000D03*
D18*
X136660000Y-157555000D03*
%TD*%
D22*
%TO.C,R35*%
X118610000Y-50225000D03*
X116610000Y-50225000D03*
%TD*%
D23*
%TO.C,C10*%
X156372500Y-98125000D03*
X158447500Y-98125000D03*
%TD*%
D24*
%TO.C,C7*%
X130410000Y-95237500D03*
X130410000Y-97312500D03*
%TD*%
D22*
%TO.C,R26*%
X154660000Y-94225000D03*
X152660000Y-94225000D03*
%TD*%
D25*
%TO.C,U6*%
X154410000Y-121745000D03*
X154410000Y-123015000D03*
X154410000Y-124285000D03*
X154410000Y-125555000D03*
X149460000Y-125555000D03*
X149460000Y-124285000D03*
X149460000Y-123015000D03*
X149460000Y-121745000D03*
%TD*%
D16*
%TO.C,H102*%
X162700000Y-92555000D03*
%TD*%
D26*
%TO.C,D109*%
X162060000Y-109025000D03*
X162060000Y-112525000D03*
%TD*%
D23*
%TO.C,C14*%
X158722500Y-114725000D03*
X160797500Y-114725000D03*
%TD*%
D24*
%TO.C,C12*%
X132110000Y-117137500D03*
X132110000Y-119212500D03*
%TD*%
D27*
%TO.C,C101*%
X162410000Y-123437500D03*
X162410000Y-121712500D03*
%TD*%
D22*
%TO.C,R29*%
X135960000Y-115325000D03*
X133960000Y-115325000D03*
%TD*%
D23*
%TO.C,C6*%
X156372500Y-94225000D03*
X158447500Y-94225000D03*
%TD*%
D28*
%TO.C,R128*%
X158472500Y-55695000D03*
X156647500Y-55695000D03*
%TD*%
D29*
%TO.C,R5*%
X120410000Y-130525000D03*
X122410000Y-130525000D03*
%TD*%
%TO.C,R38*%
X116910000Y-65725000D03*
X118910000Y-65725000D03*
%TD*%
D22*
%TO.C,R19*%
X122360000Y-125475000D03*
X120360000Y-125475000D03*
%TD*%
D23*
%TO.C,C13*%
X137672500Y-119125000D03*
X139747500Y-119125000D03*
%TD*%
D30*
%TO.C,R20*%
X124160000Y-123575000D03*
X124160000Y-125575000D03*
%TD*%
D25*
%TO.C,U3*%
X133560000Y-141695000D03*
X133560000Y-142965000D03*
X133560000Y-144235000D03*
X133560000Y-145505000D03*
X128610000Y-145505000D03*
X128610000Y-144235000D03*
X128610000Y-142965000D03*
X128610000Y-141695000D03*
%TD*%
D22*
%TO.C,R17*%
X142260000Y-101425000D03*
X140260000Y-101425000D03*
%TD*%
D30*
%TO.C,R4*%
X144110000Y-106475000D03*
X144110000Y-108475000D03*
%TD*%
D29*
%TO.C,R33*%
X155010000Y-116705000D03*
X157010000Y-116705000D03*
%TD*%
D22*
%TO.C,R21*%
X142510000Y-125925000D03*
X140510000Y-125925000D03*
%TD*%
D23*
%TO.C,C9*%
X136072500Y-97175000D03*
X138147500Y-97175000D03*
%TD*%
D30*
%TO.C,R8*%
X144310000Y-129525000D03*
X144310000Y-131525000D03*
%TD*%
D31*
%TO.C,R15*%
X158160000Y-143225000D03*
X158160000Y-141225000D03*
%TD*%
D29*
%TO.C,R3*%
X140310000Y-106575000D03*
X142310000Y-106575000D03*
%TD*%
D31*
%TO.C,R10*%
X138410000Y-143075000D03*
X138410000Y-141075000D03*
%TD*%
D29*
%TO.C,R30*%
X133960000Y-117225000D03*
X135960000Y-117225000D03*
%TD*%
D22*
%TO.C,R23*%
X134310000Y-93325000D03*
X132310000Y-93325000D03*
%TD*%
D32*
%TO.C,D107*%
X160840000Y-52935000D03*
X158940000Y-52935000D03*
X159890000Y-51060000D03*
%TD*%
D22*
%TO.C,R25*%
X134310000Y-97175000D03*
X132310000Y-97175000D03*
%TD*%
D31*
%TO.C,R14*%
X149160000Y-152525000D03*
X149160000Y-150525000D03*
%TD*%
D33*
%TO.C,U501*%
X153335000Y-62980000D03*
X153335000Y-61710000D03*
X153335000Y-60440000D03*
X153335000Y-59170000D03*
X158285000Y-59170000D03*
X158285000Y-60440000D03*
X158285000Y-61710000D03*
X158285000Y-62980000D03*
%TD*%
D34*
%TO.C,R125*%
X161867500Y-58265000D03*
X163692500Y-58265000D03*
%TD*%
D31*
%TO.C,R11*%
X124660000Y-152775000D03*
X124660000Y-150775000D03*
%TD*%
D35*
%TO.C,R124*%
X158340000Y-64752500D03*
X158340000Y-66577500D03*
%TD*%
D22*
%TO.C,R28*%
X154660000Y-98125000D03*
X152660000Y-98125000D03*
%TD*%
D25*
%TO.C,U1*%
X133560000Y-101615000D03*
X133560000Y-102885000D03*
X133560000Y-104155000D03*
X133560000Y-105425000D03*
X128610000Y-105425000D03*
X128610000Y-104155000D03*
X128610000Y-102885000D03*
X128610000Y-101615000D03*
%TD*%
D34*
%TO.C,R126*%
X157437500Y-57595000D03*
X159262500Y-57595000D03*
%TD*%
D24*
%TO.C,C8*%
X150810000Y-96150000D03*
X150810000Y-98225000D03*
%TD*%
D22*
%TO.C,R34*%
X157010000Y-118625000D03*
X155010000Y-118625000D03*
%TD*%
D30*
%TO.C,R6*%
X124210000Y-130425000D03*
X124210000Y-132425000D03*
%TD*%
D29*
%TO.C,R1*%
X120160000Y-106575000D03*
X122160000Y-106575000D03*
%TD*%
D30*
%TO.C,R12*%
X124010000Y-99575000D03*
X124010000Y-101575000D03*
%TD*%
D29*
%TO.C,R7*%
X140510000Y-129625000D03*
X142510000Y-129625000D03*
%TD*%
D24*
%TO.C,C15*%
X153147500Y-116650000D03*
X153147500Y-118725000D03*
%TD*%
D22*
%TO.C,R32*%
X157010000Y-114775000D03*
X155010000Y-114775000D03*
%TD*%
D29*
%TO.C,R36*%
X116610000Y-52775000D03*
X118610000Y-52775000D03*
%TD*%
D23*
%TO.C,C16*%
X158722500Y-118625000D03*
X160797500Y-118625000D03*
%TD*%
D31*
%TO.C,R13*%
X124610000Y-145325000D03*
X124610000Y-143325000D03*
%TD*%
D25*
%TO.C,U4*%
X154460000Y-141705000D03*
X154460000Y-142975000D03*
X154460000Y-144245000D03*
X154460000Y-145515000D03*
X149510000Y-145515000D03*
X149510000Y-144245000D03*
X149510000Y-142975000D03*
X149510000Y-141705000D03*
%TD*%
D29*
%TO.C,R27*%
X152660000Y-96175000D03*
X154660000Y-96175000D03*
%TD*%
D23*
%TO.C,C11*%
X137685000Y-115325000D03*
X139760000Y-115325000D03*
%TD*%
D30*
%TO.C,R22*%
X144360000Y-124025000D03*
X144360000Y-126025000D03*
%TD*%
D35*
%TO.C,R127*%
X164160000Y-53632500D03*
X164160000Y-55457500D03*
%TD*%
D22*
%TO.C,R16*%
X122160000Y-101475000D03*
X120160000Y-101475000D03*
%TD*%
%TO.C,R31*%
X135960000Y-119125000D03*
X133960000Y-119125000D03*
%TD*%
D25*
%TO.C,U5*%
X133560000Y-121745000D03*
X133560000Y-123015000D03*
X133560000Y-124285000D03*
X133560000Y-125555000D03*
X128610000Y-125555000D03*
X128610000Y-124285000D03*
X128610000Y-123015000D03*
X128610000Y-121745000D03*
%TD*%
D22*
%TO.C,R37*%
X118910000Y-63225000D03*
X116910000Y-63225000D03*
%TD*%
D29*
%TO.C,R24*%
X132310000Y-95275000D03*
X134310000Y-95275000D03*
%TD*%
D25*
%TO.C,U2*%
X154460000Y-101625000D03*
X154460000Y-102895000D03*
X154460000Y-104165000D03*
X154460000Y-105435000D03*
X149510000Y-105435000D03*
X149510000Y-104165000D03*
X149510000Y-102895000D03*
X149510000Y-101625000D03*
%TD*%
D30*
%TO.C,R18*%
X144060000Y-99525000D03*
X144060000Y-101525000D03*
%TD*%
%TO.C,R2*%
X124010000Y-106475000D03*
X124010000Y-108475000D03*
%TD*%
D23*
%TO.C,C5*%
X136022500Y-93325000D03*
X138097500Y-93325000D03*
%TD*%
D31*
%TO.C,R9*%
X136660000Y-152825000D03*
X136660000Y-150825000D03*
%TD*%
M02*
