M48
; DRILL file {KiCad 9.0.2-9.0.2-0~ubuntu24.04.1} date 2025-05-30T10:59:25-0300
; FORMAT={-:-/ absolute / metric / decimal}
; #@! TF.CreationDate,2025-05-30T10:59:25-03:00
; #@! TF.GenerationSoftware,Kicad,Pcbnew,9.0.2-9.0.2-0~ubuntu24.04.1
; #@! TF.FileFunction,Plated,1,2,PTH
FMAT,2
METRIC
; #@! TA.AperFunction,Plated,PTH,ViaDrill
T1C0.400
; #@! TA.AperFunction,Plated,PTH,ComponentDrill
T2C0.900
; #@! TA.AperFunction,Plated,PTH,ComponentDrill
T3C1.000
; #@! TA.AperFunction,Plated,PTH,ComponentDrill
T4C1.100
; #@! TA.AperFunction,Plated,PTH,ComponentDrill
T5C1.520
; #@! TA.AperFunction,Plated,PTH,ComponentDrill
T6C1.600
%
G90
G05
T1
X120.96Y-112.075
X123.46Y-141.775
X123.91Y-110.325
X125.76Y-133.225
X126.61Y-140.625
X126.86Y-121.625
X127.26Y-120.325
X127.41Y-99.525
X128.56Y-100.575
X128.86Y-77.975
X130.21Y-112.075
X131.26Y-82.975
X131.31Y-79.125
X133.31Y-77.975
X133.81Y-107.075
X134.38Y-60.115
X134.39Y-60.955
X134.51Y-127.375
X135.71Y-99.725
X137.86Y-111.175
X138.01Y-131.475
X139.56Y-139.375
X141.87Y-111.595
X142.15Y-58.385
X142.16Y-60.115
X142.16Y-60.985
X142.17Y-59.265
X142.17Y-61.825
X142.17Y-63.525
X142.17Y-64.375
X142.18Y-62.665
X143.66Y-91.575
X144.87Y-111.615
X144.93Y-45.885
X145.96Y-132.025
X147.28Y-124.135
X147.56Y-87.625
X148.01Y-132.875
X148.06Y-127.425
X148.11Y-99.575
X149.05Y-91.615
X149.14Y-134.635
X149.41Y-137.925
X149.46Y-100.325
X149.77Y-127.515
X150.31Y-112.625
X150.56Y-120.475
X150.615Y-60.44
X150.68Y-57.005
X150.97Y-61.855
X153.56Y-113.525
X154.05Y-48.765
X154.36Y-139.425
X154.51Y-107.025
X154.6Y-100.265
X155.26Y-127.775
X155.71Y-134.395
X155.73Y-54.115
X158.45Y-50.035
X159.22Y-87.625
X164.2Y-48.765
X164.68Y-52.185
X164.81Y-106.995
X165.97Y-106.105
T2
X129.7Y-46.215
X130.97Y-43.675
X132.24Y-46.215
X133.51Y-43.675
X134.78Y-46.215
X136.05Y-43.675
X137.32Y-46.215
X138.59Y-43.675
X150.7Y-46.215
X151.97Y-43.675
X153.24Y-46.215
X154.51Y-43.675
X155.78Y-46.215
X157.05Y-43.675
X158.32Y-46.215
X159.59Y-43.675
T3
X122.1Y-50.205
X122.1Y-52.745
X122.1Y-55.285
X122.1Y-57.825
X122.1Y-63.205
X122.1Y-65.745
X122.1Y-68.285
X122.1Y-70.825
X122.1Y-76.205
X122.1Y-78.745
X122.1Y-81.285
X122.1Y-83.825
X164.46Y-113.395
X164.46Y-115.935
X164.46Y-118.475
X164.46Y-121.015
X164.46Y-123.555
T4
X144.33Y-66.985
X144.33Y-69.525
X144.33Y-72.065
X144.33Y-79.185
X144.33Y-81.725
X144.33Y-84.265
T5
X115.7Y-101.475
X115.7Y-106.555
X115.7Y-113.475
X115.7Y-118.555
X115.7Y-125.475
X115.7Y-130.555
X115.7Y-137.475
X115.7Y-142.555
X124.66Y-157.555
X129.74Y-157.555
X136.66Y-157.555
X141.74Y-157.555
X148.66Y-157.555
X153.74Y-157.555
T6
X126.395Y-40.375
X141.895Y-40.375
X147.395Y-40.375
X162.895Y-40.375
M30
