%TF.GenerationSoftware,KiCad,Pcbnew,9.0.2-9.0.2-0~ubuntu24.04.1*%
%TF.CreationDate,2025-05-30T10:59:00-03:00*%
%TF.ProjectId,MSG25,4d534732-352e-46b6-9963-61645f706362,rev?*%
%TF.SameCoordinates,Original*%
%TF.FileFunction,Other,User*%
%FSLAX46Y46*%
G04 Gerber Fmt 4.6, Leading zero omitted, Abs format (unit mm)*
G04 Created by KiCad (PCBNEW 9.0.2-9.0.2-0~ubuntu24.04.1) date 2025-05-30 10:59:00*
%MOMM*%
%LPD*%
G01*
G04 APERTURE LIST*
%ADD10C,0.050000*%
G04 APERTURE END LIST*
D10*
%TO.C,D3*%
X124510000Y-107775000D02*
X126710000Y-107775000D01*
X124510000Y-113075000D02*
X124510000Y-107775000D01*
X126710000Y-107775000D02*
X126710000Y-113075000D01*
X126710000Y-113075000D02*
X124510000Y-113075000D01*
%TO.C,C212*%
X136730000Y-107295000D02*
X140490000Y-107295000D01*
X136730000Y-109255000D02*
X136730000Y-107295000D01*
X140490000Y-107295000D02*
X140490000Y-109255000D01*
X140490000Y-109255000D02*
X136730000Y-109255000D01*
%TO.C,C207*%
X136730000Y-105295000D02*
X140490000Y-105295000D01*
X136730000Y-107255000D02*
X136730000Y-105295000D01*
X140490000Y-105295000D02*
X140490000Y-107255000D01*
X140490000Y-107255000D02*
X136730000Y-107255000D01*
%TO.C,J106*%
X147130000Y-26399000D02*
X147130000Y-47735000D01*
X147131000Y-26399000D02*
X163151000Y-26399000D01*
X163150000Y-47735000D02*
X147130000Y-47735000D01*
X163150000Y-47735000D02*
X163151000Y-26399000D01*
%TO.C,C209*%
X140615000Y-105715000D02*
X142795000Y-105715000D01*
X140615000Y-106635000D02*
X140615000Y-105715000D01*
X142795000Y-105715000D02*
X142795000Y-106635000D01*
X142795000Y-106635000D02*
X140615000Y-106635000D01*
%TO.C,C122*%
X137580000Y-74425000D02*
X142540000Y-74425000D01*
X137580000Y-76725000D02*
X137580000Y-74425000D01*
X142540000Y-74425000D02*
X142540000Y-76725000D01*
X142540000Y-76725000D02*
X137580000Y-76725000D01*
%TO.C,C127*%
X138410000Y-83245000D02*
X140710000Y-83245000D01*
X138410000Y-88205000D02*
X138410000Y-83245000D01*
X140710000Y-83245000D02*
X140710000Y-88205000D01*
X140710000Y-88205000D02*
X138410000Y-88205000D01*
%TO.C,C121*%
X138947500Y-77145000D02*
X142247500Y-77145000D01*
X138947500Y-78605000D02*
X138947500Y-77145000D01*
X142247500Y-77145000D02*
X142247500Y-78605000D01*
X142247500Y-78605000D02*
X138947500Y-78605000D01*
%TO.C,C211*%
X148700000Y-110985000D02*
X149620000Y-110985000D01*
X148700000Y-113165000D02*
X148700000Y-110985000D01*
X149620000Y-110985000D02*
X149620000Y-113165000D01*
X149620000Y-113165000D02*
X148700000Y-113165000D01*
%TO.C,J102*%
X162660000Y-111595000D02*
X166210000Y-111595000D01*
X162660000Y-125295000D02*
X162660000Y-111595000D01*
X166210000Y-111595000D02*
X166210000Y-125295000D01*
X166210000Y-125295000D02*
X162660000Y-125295000D01*
%TO.C,C124*%
X139060000Y-72695000D02*
X142360000Y-72695000D01*
X139060000Y-74155000D02*
X139060000Y-72695000D01*
X142360000Y-72695000D02*
X142360000Y-74155000D01*
X142360000Y-74155000D02*
X139060000Y-74155000D01*
%TO.C,H101*%
X119150000Y-92555000D02*
G75*
G02*
X112250000Y-92555000I-3450000J0D01*
G01*
X112250000Y-92555000D02*
G75*
G02*
X119150000Y-92555000I3450000J0D01*
G01*
%TO.C,C23*%
X150630000Y-136545000D02*
X154390000Y-136545000D01*
X150630000Y-138505000D02*
X150630000Y-136545000D01*
X154390000Y-136545000D02*
X154390000Y-138505000D01*
X154390000Y-138505000D02*
X150630000Y-138505000D01*
%TO.C,-Temp1+1*%
X121950000Y-153555000D02*
X121950000Y-161555000D01*
X121950000Y-153555000D02*
X132450000Y-153555000D01*
X132450000Y-161555000D02*
X121950000Y-161555000D01*
X132450000Y-161555000D02*
X132450000Y-153555000D01*
%TO.C,U103*%
X143080000Y-65775000D02*
X145580000Y-65775000D01*
X143080000Y-68195000D02*
X143080000Y-65775000D01*
X143080000Y-68315000D02*
X145580000Y-68315000D01*
X143080000Y-70735000D02*
X143080000Y-68315000D01*
X143080000Y-70855000D02*
X145580000Y-70855000D01*
X143080000Y-73275000D02*
X143080000Y-70855000D01*
X145580000Y-65775000D02*
X145580000Y-66355000D01*
X145580000Y-66355000D02*
X147890000Y-66355000D01*
X145580000Y-67615000D02*
X145580000Y-68195000D01*
X145580000Y-68195000D02*
X143080000Y-68195000D01*
X145580000Y-68315000D02*
X145580000Y-68895000D01*
X145580000Y-68895000D02*
X147890000Y-68895000D01*
X145580000Y-70155000D02*
X145580000Y-70735000D01*
X145580000Y-70735000D02*
X143080000Y-70735000D01*
X145580000Y-70855000D02*
X145580000Y-71435000D01*
X145580000Y-71435000D02*
X147890000Y-71435000D01*
X145580000Y-72695000D02*
X145580000Y-73275000D01*
X145580000Y-73275000D02*
X143080000Y-73275000D01*
X147890000Y-64275000D02*
X164040000Y-64275000D01*
X147890000Y-66355000D02*
X147890000Y-64275000D01*
X147890000Y-67615000D02*
X145580000Y-67615000D01*
X147890000Y-68895000D02*
X147890000Y-67615000D01*
X147890000Y-70155000D02*
X145580000Y-70155000D01*
X147890000Y-71435000D02*
X147890000Y-70155000D01*
X147890000Y-72695000D02*
X145580000Y-72695000D01*
X147890000Y-74775000D02*
X147890000Y-72695000D01*
X164040000Y-64275000D02*
X164040000Y-74775000D01*
X164040000Y-74775000D02*
X147890000Y-74775000D01*
%TO.C,R202*%
X144960000Y-105125000D02*
X146860000Y-105125000D01*
X144960000Y-108825000D02*
X144960000Y-105125000D01*
X146860000Y-105125000D02*
X146860000Y-108825000D01*
X146860000Y-108825000D02*
X144960000Y-108825000D01*
%TO.C,C22*%
X124700000Y-138295000D02*
X128460000Y-138295000D01*
X124700000Y-140255000D02*
X124700000Y-138295000D01*
X128460000Y-138295000D02*
X128460000Y-140255000D01*
X128460000Y-140255000D02*
X124700000Y-140255000D01*
%TO.C,C119*%
X139580000Y-66175000D02*
X141040000Y-66175000D01*
X139580000Y-69475000D02*
X139580000Y-66175000D01*
X141040000Y-66175000D02*
X141040000Y-69475000D01*
X141040000Y-69475000D02*
X139580000Y-69475000D01*
%TO.C,C20*%
X144740000Y-95665000D02*
X148500000Y-95665000D01*
X144740000Y-97625000D02*
X144740000Y-95665000D01*
X148500000Y-95665000D02*
X148500000Y-97625000D01*
X148500000Y-97625000D02*
X144740000Y-97625000D01*
%TO.C,C21*%
X129080000Y-99645000D02*
X132840000Y-99645000D01*
X129080000Y-101605000D02*
X129080000Y-99645000D01*
X132840000Y-99645000D02*
X132840000Y-101605000D01*
X132840000Y-101605000D02*
X129080000Y-101605000D01*
%TO.C,C131*%
X149940000Y-57935000D02*
X153240000Y-57935000D01*
X149940000Y-59395000D02*
X149940000Y-57935000D01*
X153240000Y-57935000D02*
X153240000Y-59395000D01*
X153240000Y-59395000D02*
X149940000Y-59395000D01*
%TO.C,C210*%
X140615000Y-107685000D02*
X142795000Y-107685000D01*
X140615000Y-108605000D02*
X140615000Y-107685000D01*
X142795000Y-107685000D02*
X142795000Y-108605000D01*
X142795000Y-108605000D02*
X140615000Y-108605000D01*
%TO.C,C132*%
X160150000Y-52805000D02*
X161610000Y-52805000D01*
X160150000Y-56105000D02*
X160150000Y-52805000D01*
X161610000Y-52805000D02*
X161610000Y-56105000D01*
X161610000Y-56105000D02*
X160150000Y-56105000D01*
%TO.C,U106*%
X127660000Y-83925000D02*
X127660000Y-92725000D01*
X127660000Y-92725000D02*
X134860000Y-92725000D01*
X134860000Y-83925000D02*
X127660000Y-83925000D01*
X134860000Y-92725000D02*
X134860000Y-83925000D01*
%TO.C,D8*%
X126710000Y-135975000D02*
X132010000Y-135975000D01*
X126710000Y-138175000D02*
X126710000Y-135975000D01*
X132010000Y-135975000D02*
X132010000Y-138175000D01*
X132010000Y-138175000D02*
X126710000Y-138175000D01*
%TO.C,D4*%
X128860000Y-103725000D02*
X131060000Y-103725000D01*
X128860000Y-109025000D02*
X128860000Y-103725000D01*
X131060000Y-103725000D02*
X131060000Y-109025000D01*
X131060000Y-109025000D02*
X128860000Y-109025000D01*
%TO.C,U502*%
X143080000Y-77975000D02*
X145580000Y-77975000D01*
X143080000Y-80395000D02*
X143080000Y-77975000D01*
X143080000Y-80515000D02*
X145580000Y-80515000D01*
X143080000Y-82935000D02*
X143080000Y-80515000D01*
X143080000Y-83055000D02*
X145580000Y-83055000D01*
X143080000Y-85475000D02*
X143080000Y-83055000D01*
X145580000Y-77975000D02*
X145580000Y-78555000D01*
X145580000Y-78555000D02*
X147890000Y-78555000D01*
X145580000Y-79815000D02*
X145580000Y-80395000D01*
X145580000Y-80395000D02*
X143080000Y-80395000D01*
X145580000Y-80515000D02*
X145580000Y-81095000D01*
X145580000Y-81095000D02*
X147890000Y-81095000D01*
X145580000Y-82355000D02*
X145580000Y-82935000D01*
X145580000Y-82935000D02*
X143080000Y-82935000D01*
X145580000Y-83055000D02*
X145580000Y-83635000D01*
X145580000Y-83635000D02*
X147890000Y-83635000D01*
X145580000Y-84895000D02*
X145580000Y-85475000D01*
X145580000Y-85475000D02*
X143080000Y-85475000D01*
X147890000Y-76475000D02*
X164040000Y-76475000D01*
X147890000Y-78555000D02*
X147890000Y-76475000D01*
X147890000Y-79815000D02*
X145580000Y-79815000D01*
X147890000Y-81095000D02*
X147890000Y-79815000D01*
X147890000Y-82355000D02*
X145580000Y-82355000D01*
X147890000Y-83635000D02*
X147890000Y-82355000D01*
X147890000Y-84895000D02*
X145580000Y-84895000D01*
X147890000Y-86975000D02*
X147890000Y-84895000D01*
X164040000Y-76475000D02*
X164040000Y-86975000D01*
X164040000Y-86975000D02*
X147890000Y-86975000D01*
%TO.C,C126*%
X136880000Y-83375000D02*
X138340000Y-83375000D01*
X136880000Y-86675000D02*
X136880000Y-83375000D01*
X138340000Y-83375000D02*
X138340000Y-86675000D01*
X138340000Y-86675000D02*
X136880000Y-86675000D01*
%TO.C,C25*%
X149540000Y-129645000D02*
X153300000Y-129645000D01*
X149540000Y-131605000D02*
X149540000Y-129645000D01*
X153300000Y-129645000D02*
X153300000Y-131605000D01*
X153300000Y-131605000D02*
X149540000Y-131605000D01*
%TO.C,D5*%
X126410000Y-123125000D02*
X131710000Y-123125000D01*
X126410000Y-125325000D02*
X126410000Y-123125000D01*
X131710000Y-123125000D02*
X131710000Y-125325000D01*
X131710000Y-125325000D02*
X126410000Y-125325000D01*
%TO.C,C117*%
X135710000Y-66045000D02*
X138010000Y-66045000D01*
X135710000Y-71005000D02*
X135710000Y-66045000D01*
X138010000Y-66045000D02*
X138010000Y-71005000D01*
X138010000Y-71005000D02*
X135710000Y-71005000D01*
%TO.C,D108*%
X140810000Y-49225000D02*
X143010000Y-49225000D01*
X140810000Y-54525000D02*
X140810000Y-49225000D01*
X143010000Y-49225000D02*
X143010000Y-54525000D01*
X143010000Y-54525000D02*
X140810000Y-54525000D01*
%TO.C,D7*%
X140710000Y-141475000D02*
X142910000Y-141475000D01*
X140710000Y-146775000D02*
X140710000Y-141475000D01*
X142910000Y-141475000D02*
X142910000Y-146775000D01*
X142910000Y-146775000D02*
X140710000Y-146775000D01*
%TO.C,Cell3*%
X111700000Y-133265000D02*
X111700000Y-122765000D01*
X111700000Y-133265000D02*
X119700000Y-133265000D01*
X119700000Y-122765000D02*
X111700000Y-122765000D01*
X119700000Y-122765000D02*
X119700000Y-133265000D01*
%TO.C,-Temp3+1*%
X145950000Y-153555000D02*
X145950000Y-161555000D01*
X145950000Y-153555000D02*
X156450000Y-153555000D01*
X156450000Y-161555000D02*
X145950000Y-161555000D01*
X156450000Y-161555000D02*
X156450000Y-153555000D01*
%TO.C,C205*%
X131530000Y-109695000D02*
X133490000Y-109695000D01*
X131530000Y-113455000D02*
X131530000Y-109695000D01*
X133490000Y-109695000D02*
X133490000Y-113455000D01*
X133490000Y-113455000D02*
X131530000Y-113455000D01*
%TO.C,R203*%
X133510000Y-109675000D02*
X135410000Y-109675000D01*
X133510000Y-113375000D02*
X133510000Y-109675000D01*
X135410000Y-109675000D02*
X135410000Y-113375000D01*
X135410000Y-113375000D02*
X133510000Y-113375000D01*
%TO.C,J9*%
X111550000Y-61455000D02*
X111550000Y-72655000D01*
X111550000Y-72655000D02*
X123850000Y-72655000D01*
X123850000Y-61455000D02*
X111550000Y-61455000D01*
X123850000Y-72655000D02*
X123850000Y-61455000D01*
%TO.C,+Banco1-1*%
X111700000Y-145265000D02*
X111700000Y-134765000D01*
X111700000Y-145265000D02*
X119700000Y-145265000D01*
X119700000Y-134765000D02*
X111700000Y-134765000D01*
X119700000Y-134765000D02*
X119700000Y-145265000D01*
%TO.C,R201*%
X143940000Y-106895000D02*
X144880000Y-106895000D01*
X143940000Y-108755000D02*
X143940000Y-106895000D01*
X144880000Y-106895000D02*
X144880000Y-108755000D01*
X144880000Y-108755000D02*
X143940000Y-108755000D01*
%TO.C,Cell2*%
X111700000Y-121265000D02*
X111700000Y-110765000D01*
X111700000Y-121265000D02*
X119700000Y-121265000D01*
X119700000Y-110765000D02*
X111700000Y-110765000D01*
X119700000Y-110765000D02*
X119700000Y-121265000D01*
%TO.C,U202*%
X134410000Y-114700000D02*
X135860000Y-114700000D01*
X134410000Y-123000000D02*
X134410000Y-114700000D01*
X135860000Y-113600000D02*
X136960000Y-113600000D01*
X135860000Y-114700000D02*
X135860000Y-113600000D01*
X135860000Y-123000000D02*
X134410000Y-123000000D01*
X135860000Y-124100000D02*
X135860000Y-123000000D01*
X136960000Y-112150000D02*
X145260000Y-112150000D01*
X136960000Y-113600000D02*
X136960000Y-112150000D01*
X136960000Y-124100000D02*
X135860000Y-124100000D01*
X136960000Y-125550000D02*
X136960000Y-124100000D01*
X145260000Y-112150000D02*
X145260000Y-113600000D01*
X145260000Y-113600000D02*
X146360000Y-113600000D01*
X145260000Y-124100000D02*
X145260000Y-125550000D01*
X145260000Y-125550000D02*
X136960000Y-125550000D01*
X146360000Y-113600000D02*
X146360000Y-114700000D01*
X146360000Y-114700000D02*
X147810000Y-114700000D01*
X146360000Y-123000000D02*
X146360000Y-124100000D01*
X146360000Y-124100000D02*
X145260000Y-124100000D01*
X147810000Y-114700000D02*
X147810000Y-123000000D01*
X147810000Y-123000000D02*
X146360000Y-123000000D01*
%TO.C,J101*%
X111550000Y-74455000D02*
X111550000Y-85655000D01*
X111550000Y-85655000D02*
X123850000Y-85655000D01*
X123850000Y-74455000D02*
X111550000Y-74455000D01*
X123850000Y-85655000D02*
X123850000Y-74455000D01*
%TO.C,H103*%
X119150000Y-157555000D02*
G75*
G02*
X112250000Y-157555000I-3450000J0D01*
G01*
X112250000Y-157555000D02*
G75*
G02*
X119150000Y-157555000I3450000J0D01*
G01*
%TO.C,C130*%
X137310000Y-90695000D02*
X139610000Y-90695000D01*
X137310000Y-95655000D02*
X137310000Y-90695000D01*
X139610000Y-90695000D02*
X139610000Y-95655000D01*
X139610000Y-95655000D02*
X137310000Y-95655000D01*
%TO.C,J8*%
X111550000Y-48455000D02*
X111550000Y-59655000D01*
X111550000Y-59655000D02*
X123850000Y-59655000D01*
X123850000Y-48455000D02*
X111550000Y-48455000D01*
X123850000Y-59655000D02*
X123850000Y-48455000D01*
%TO.C,H104*%
X166150000Y-157555000D02*
G75*
G02*
X159250000Y-157555000I-3450000J0D01*
G01*
X159250000Y-157555000D02*
G75*
G02*
X166150000Y-157555000I3450000J0D01*
G01*
%TO.C,C24*%
X122180000Y-120645000D02*
X125940000Y-120645000D01*
X122180000Y-122605000D02*
X122180000Y-120645000D01*
X125940000Y-120645000D02*
X125940000Y-122605000D01*
X125940000Y-122605000D02*
X122180000Y-122605000D01*
%TO.C,C206*%
X136730000Y-103295000D02*
X140490000Y-103295000D01*
X136730000Y-105255000D02*
X136730000Y-103295000D01*
X140490000Y-103295000D02*
X140490000Y-105255000D01*
X140490000Y-105255000D02*
X136730000Y-105255000D01*
%TO.C,C213*%
X148680000Y-113195000D02*
X152440000Y-113195000D01*
X148680000Y-115155000D02*
X148680000Y-113195000D01*
X152440000Y-113195000D02*
X152440000Y-115155000D01*
X152440000Y-115155000D02*
X148680000Y-115155000D01*
%TO.C,J105*%
X126130000Y-26399000D02*
X126130000Y-47735000D01*
X126131000Y-26399000D02*
X142151000Y-26399000D01*
X142150000Y-47735000D02*
X126130000Y-47735000D01*
X142150000Y-47735000D02*
X142151000Y-26399000D01*
%TO.C,Cell1*%
X111700000Y-109265000D02*
X111700000Y-98765000D01*
X111700000Y-109265000D02*
X119700000Y-109265000D01*
X119700000Y-98765000D02*
X111700000Y-98765000D01*
X119700000Y-98765000D02*
X119700000Y-109265000D01*
%TO.C,C128*%
X141030000Y-83537500D02*
X142490000Y-83537500D01*
X141030000Y-86837500D02*
X141030000Y-83537500D01*
X142490000Y-83537500D02*
X142490000Y-86837500D01*
X142490000Y-86837500D02*
X141030000Y-86837500D01*
%TO.C,D6*%
X130960000Y-128525000D02*
X136260000Y-128525000D01*
X130960000Y-130725000D02*
X130960000Y-128525000D01*
X136260000Y-128525000D02*
X136260000Y-130725000D01*
X136260000Y-130725000D02*
X130960000Y-130725000D01*
%TO.C,-Temp2+1*%
X133950000Y-153555000D02*
X133950000Y-161555000D01*
X133950000Y-153555000D02*
X144450000Y-153555000D01*
X144450000Y-161555000D02*
X133950000Y-161555000D01*
X144450000Y-161555000D02*
X144450000Y-153555000D01*
%TO.C,C208*%
X140615000Y-103745000D02*
X142795000Y-103745000D01*
X140615000Y-104665000D02*
X140615000Y-103745000D01*
X142795000Y-103745000D02*
X142795000Y-104665000D01*
X142795000Y-104665000D02*
X140615000Y-104665000D01*
%TO.C,D9*%
X149810000Y-141575000D02*
X152010000Y-141575000D01*
X149810000Y-146875000D02*
X149810000Y-141575000D01*
X152010000Y-141575000D02*
X152010000Y-146875000D01*
X152010000Y-146875000D02*
X149810000Y-146875000D01*
%TO.C,F101*%
X133730000Y-48125000D02*
X139990000Y-48125000D01*
X133730000Y-52025000D02*
X133730000Y-48125000D01*
X139990000Y-48125000D02*
X139990000Y-52025000D01*
X139990000Y-52025000D02*
X133730000Y-52025000D01*
%TO.C,C129*%
X135630000Y-90675000D02*
X137090000Y-90675000D01*
X135630000Y-93975000D02*
X135630000Y-90675000D01*
X137090000Y-90675000D02*
X137090000Y-93975000D01*
X137090000Y-93975000D02*
X135630000Y-93975000D01*
%TD*%
M02*
